<?xml version="1.0" encoding="UTF-8"?>
<svg id="c" data-name="Laag 1" xmlns="http://www.w3.org/2000/svg" width="204mm" height="90mm" viewBox="0 0 578.27 255.12">
  <defs>
    <style>
      .f {
        fill: #8cc3e6;
      }

      .g {
        fill: #a90061;
      }

      .h {
        fill: #fff;
      }

      .i {
        fill: #007bc7;
      }

      .j {
        fill: #ffb612;
      }
    </style>
  </defs>
  <rect class="h" y="0" width="578.27" height="255.12"/>
  <rect class="j" x="17.01" y="127.56" width="110.55" height="110.55"/>
  <rect class="f" x="17.01" y="17.01" width="110.55" height="110.55" transform="translate(144.57 144.57) rotate(180)"/>
  <g>
    <path class="g" d="M107.19,89.79l-7.31-10.87-1.28-29.08c-.09-2.12-1.81-3.78-3.94-3.78h-44.77c-2.12,0-3.85,1.66-3.94,3.77l-1.28,29.09-7.31,10.87c-.37.61-.56,1.31-.56,2.03v5.48c0,1.45,1.18,2.63,2.63,2.63h65.68c1.45,0,2.63-1.18,2.63-2.63v-5.48c0-.71-.19-1.42-.56-2.03ZM63.09,90.73l2.63-5.25h13.14l2.63,5.25h-18.39ZM98.39,78.9h-52.21c-.03-.16,0-.38.32-.48,1.55-.48,3.52-1.04,3.52-1.04l1.15-26.07h42.25l1.15,26.07s1.52.44,3.51,1.03c.32.09.37.34.32.49Z"/>
    <path class="g" d="M78.85,61.83c0-3.63-2.94-6.57-6.57-6.57s-6.57,2.94-6.57,6.57v2.63h-1.31v9.2h15.76v-9.2h-1.31v-2.63ZM69.66,61.83c0-1.45,1.18-2.63,2.63-2.63s2.63,1.18,2.63,2.63v2.63h-5.25v-2.63Z"/>
  </g>
  <path class="i" d="M87.64,153.31h-7.09v-3.54c0-1.3-1.06-2.36-2.36-2.36h-11.81c-1.3,0-2.36,1.06-2.36,2.36v1.77l6.77,1.35c.37.12.32.36.3.43h-14.16c-1.3,0-2.36,1.06-2.36,2.36v60.24c0,1.3,1.06,2.36,2.36,2.36h30.71c1.3,0,2.36-1.06,2.36-2.36v-60.24c0-1.3-1.06-2.36-2.36-2.36ZM69.92,205.28l3.77-17.72c-9.38,0,5.11,0-13.22,0l14.17-24.8-3.77,17.72c9.38,0-5.11,0,13.22,0l-14.17,24.8Z"/>
  <path class="g" d="M127.56,17.01h433.7v110.55c0,61.01-49.54,110.55-110.55,110.55H127.56V17.01h0Z"/>
  <g>
    <path class="h" d="M184.01,52.71h-15.37v-3.77h34.96v3.77h-15.37v46.65h-4.23v-46.65Z"/>
    <path class="h" d="M211.56,48.95h23.98v3.77h-19.75v18.83h17.6v3.77h-17.6v20.29h19.98v3.77h-24.21v-50.41Z"/>
    <path class="h" d="M244.61,48.95h12.45c10.37,0,16.29,4.99,16.29,13.29,0,7.53-4.38,12.29-10.3,13.99l13.68,23.13h-4.92l-13.06-22.13h-9.91v22.13h-4.23v-50.41ZM257.21,73.54c7.15,0,11.76-3.61,11.76-10.68,0-6.69-4.07-10.22-12.29-10.22h-7.84v20.9h8.38Z"/>
    <path class="h" d="M286.99,48.95h6.53l14.91,35.27h.23l14.68-35.27h6.38l2.61,50.41h-4.3l-2.23-46.34h-.31l-14.91,35.58h-4.53l-15.14-35.58h-.31l-2.15,46.34h-4.07l2.61-50.41Z"/>
    <path class="h" d="M344.42,48.95h4.23v50.41h-4.23v-50.41Z"/>
    <path class="h" d="M361.42,48.95h6.69l22.59,46.18h.31v-46.18h4v50.41h-6.69l-22.67-46.26h-.23v46.26h-4v-50.41Z"/>
    <path class="h" d="M418.99,48.95h6.61l16.21,50.41h-4.46l-4.84-14.98h-20.98l-4.69,14.98h-4.38l16.52-50.41ZM431.52,80.68l-9.07-28.36h-.69l-9.07,28.36h18.83Z"/>
    <path class="h" d="M449.39,48.95h4.23v46.65h19.9v3.77h-24.13v-50.41Z"/>
    <path class="h" d="M166.8,120.58h24.58l13.13,64.74h.9l15.19-51.1-3.73-13.64h23.94l16.6,64.74h.9l12.36-64.74h22.78l-20.34,84.44h-31.02l-11.58-45.95h-.77l-12.49,45.95h-30.25l-20.21-84.44Z"/>
    <path class="h" d="M296.21,163.7c0-29.09,21.37-44.28,43.51-44.28,23.94,0,41.83,14.42,41.83,42.48s-21.37,44.28-43.51,44.28c-23.94,0-41.83-14.42-41.83-42.48ZM358.25,163.57c0-16.73-9.01-24.97-19.31-24.97-11.07,0-19.44,7.59-19.44,23.68s9.01,24.71,19.31,24.71c11.07,0,19.44-7.34,19.44-23.43Z"/>
    <path class="h" d="M390.12,163.7c0-29.09,21.37-44.28,43.51-44.28,23.94,0,41.83,14.42,41.83,42.48s-21.37,44.28-43.51,44.28c-23.94,0-41.83-14.42-41.83-42.48ZM452.16,163.57c0-16.73-9.01-24.97-19.31-24.97-11.07,0-19.44,7.59-19.44,23.68s9.01,24.71,19.31,24.71c11.07,0,19.44-7.34,19.44-23.43Z"/>
  </g>
</svg>